# xmcd
#
# Track frame offsets: 
#        150
#        19400
#        41437
#        54487
#        80062
#        103475
#        122250
#        142237
#        163105
#        173212
#        191800
#
# Disc length: 2727 seconds
#
# Revision: 2
# Processed by: cddbd v1.5.2PL0 Copyright (c) Steve Scherf et al.
# Submitted via: ExactAudioCopyFreeDBPlugin 1.0
#
DISCID=9f0aa50b
DTITLE=Charles Brown - One More For The Road
DYEAR=1989
DGENRE=Blues
TTITLE0=I Cried Last Night
TTITLE1=Save Your Love For Me
TTITLE2=I Stepped In Quicksand
TTITLE3=One For My Baby
TTITLE4=Route 66
TTITLE5=Who Will The Next Fool Be?
TTITLE6=You Changed My Life
TTITLE7=Cottage For Sale
TTITLE8=My Heart Is Mended
TTITLE9=I Miss You So
TTITLE10=Travelin' Blues
EXTD=
EXTT0=
EXTT1=
EXTT2=
EXTT3=
EXTT4=
EXTT5=
EXTT6=
EXTT7=
EXTT8=
EXTT9=
EXTT10=
PLAYORDER=
